HIERARCHY
ROOT Hips
{
	OFFSET 36.215240 100.393600 -1.933919
	CHANNELS 6 Xposition Yposition Zposition Xrotation Yrotation Zrotation
	JOINT Chest
	{
		OFFSET -3.088383 13.131958 2.041530
		CHANNELS 3 Xrotation Yrotation Zrotation
		JOINT Chest2
		{
			OFFSET -8.763212 19.471390 1.771290
			CHANNELS 3 Xrotation Yrotation Zrotation
			JOINT Chest3
			{
				OFFSET -6.250860 13.521744 -0.953490
				CHANNELS 3 Xrotation Yrotation Zrotation
				JOINT Neck
				{
					OFFSET -4.814231 16.596069 0.099465
					CHANNELS 3 Xrotation Yrotation Zrotation
					JOINT Head
					{
						OFFSET -2.133961 9.922546 2.610951
						CHANNELS 3 Xrotation Yrotation Zrotation
						End Site
						{
							OFFSET -2.145190 9.938400 2.540493
						}
					}
				}
				JOINT LeftCollar
				{
					OFFSET 0.851593 14.040054 1.988928
					CHANNELS 3 Xrotation Yrotation Zrotation
					JOINT LeftUpArm
					{
						OFFSET 10.225866 9.680466 -10.498545
						CHANNELS 3 Xrotation Yrotation Zrotation
						JOINT LeftLowArm
						{
							OFFSET 6.051729 32.052109 8.704370
							CHANNELS 3 Xrotation Yrotation Zrotation
							JOINT LeftHand
							{
								OFFSET -2.987934 28.069458 10.204139
								CHANNELS 3 Xrotation Yrotation Zrotation
								End Site
								{
									OFFSET -0.653028 6.134750 2.230184
								}
							}
						}
					}
				}
				JOINT RightCollar
				{
					OFFSET -7.040296 11.740082 3.796488
					CHANNELS 3 Xrotation Yrotation Zrotation
					JOINT RightUpArm
					{
						OFFSET -16.141022 5.534744 -4.162968
						CHANNELS 3 Xrotation Yrotation Zrotation
						JOINT RightLowArm
						{
							OFFSET -9.431135 30.433228 11.162728
							CHANNELS 3 Xrotation Yrotation Zrotation
							JOINT RightHand
							{
								OFFSET -1.379116 29.011200 7.576468
								CHANNELS 3 Xrotation Yrotation Zrotation
								End Site
								{
									OFFSET -0.301420 6.340683 1.655918
								}
							}
						}
					}
				}
			}
		}
	}
	JOINT LeftUpLeg
	{
		OFFSET 9.335201 2.593086 -2.559108
		CHANNELS 3 Xrotation Yrotation Zrotation
		JOINT LeftLowLeg
		{
			OFFSET 5.456100 -46.850559 -4.387022
			CHANNELS 3 Xrotation Yrotation Zrotation
			JOINT LeftFoot
			{
				OFFSET -5.983719 -38.784615 -21.459671
				CHANNELS 3 Xrotation Yrotation Zrotation
				JOINT LeftToe
				{
					OFFSET 1.297802 -18.630901 14.517749
					CHANNELS 3 Xrotation Yrotation Zrotation
					End Site
					{
						OFFSET 5.378639 -5.383102 22.397575
					}
				}
			}
		}
	}
	JOINT RightUpLeg
	{
		OFFSET -9.335159 -2.593285 2.559079
		CHANNELS 3 Xrotation Yrotation Zrotation
		JOINT RightLowLeg
		{
			OFFSET -3.982332 -46.356529 8.900909
			CHANNELS 3 Xrotation Yrotation Zrotation
			JOINT RightFoot
			{
				OFFSET -28.770958 -21.613461 -26.564466
				CHANNELS 3 Xrotation Yrotation Zrotation
				JOINT RightToe
				{
					OFFSET -7.456131 -22.423199 1.078545
					CHANNELS 3 Xrotation Yrotation Zrotation
					End Site
					{
						OFFSET -0.352283 -18.456429 14.791627
					}
				}
			}
		}
	}
}
MOTION
Frames: 12
Frame Time: 0.033333
38.064068 101.224472 -1.313521 -0.252684 5.309045 1.512656 -3.761208 -1.163350 -0.745402 0.990327 -0.298710 1.413341 1.181665 0.401649 -0.602516 2.541397 0.425784 -0.111638 -0.000002 0.000000 -0.000000 -0.400678 2.339732 0.799164 -0.274345 3.299550 4.723324 -4.763984 2.681315 1.930052 -0.000000 -0.000002 0.000000 0.282149 -1.453260 -3.578752 -1.451340 -2.932634 -7.543635 -0.607223 -3.144816 1.175322 -0.000000 -0.000001 0.000002 2.649530 0.357144 -2.761545 1.026511 -0.161781 0.706182 3.539912 -1.104076 -1.674128 0.000001 0.000002 -0.000001 0.074596 0.532816 3.479143 1.059822 -0.277291 -2.642530 0.047707 -4.502033 -7.028852 -0.000005 -0.000000 -0.000000 
38.036453 101.145996 -1.311837 -0.541720 5.430299 1.637081 -3.990559 -1.216289 -0.858717 1.284062 -0.252345 1.411698 1.076312 0.574179 -0.591489 2.922896 0.170947 0.162181 -0.000000 -0.000000 -0.000001 0.076783 1.925790 0.506827 -0.721423 3.531441 4.994934 -4.462788 2.712556 1.968478 0.000002 -0.000001 0.000000 0.286168 -1.458681 -3.389322 -1.237984 -2.727151 -7.469051 -0.758417 -3.266086 0.889275 0.000000 0.000003 0.000001 2.743194 0.401025 -2.865440 1.014528 -0.288410 0.744270 3.102109 -0.870502 -1.409076 0.000001 -0.000001 -0.000002 0.208003 0.563909 3.365319 1.287370 -0.292655 -2.516563 -0.002412 -4.500977 -7.030107 -0.000006 0.000001 0.000001 
38.008873 101.078354 -1.311838 -0.316186 5.035363 1.623593 -4.147871 -1.270370 -0.777614 1.295782 -0.177722 1.209401 0.995229 0.352160 -0.479629 2.465914 0.445206 -0.135651 -0.000000 0.000001 0.000002 -0.023822 2.034287 0.470843 -0.255976 3.101037 5.051906 -4.167962 2.574506 1.857306 0.000000 -0.000002 0.000000 0.456099 -0.900557 -3.345819 -1.024038 -2.427134 -7.312836 -0.582578 -3.081850 0.870554 -0.000002 0.000002 0.000003 2.722716 0.464141 -2.829970 0.794891 -0.277385 0.593967 3.525153 -0.383501 -1.221080 -0.000001 -0.000000 -0.000000 -0.075362 0.469284 3.616725 1.227365 -0.166638 -3.016108 0.562477 -4.520906 -7.063126 -0.000005 -0.000001 -0.000001 
37.986099 101.003052 -1.326840 -0.178309 5.184415 1.701444 -4.265666 -1.255318 -0.960335 1.702699 -0.146819 1.341808 0.508943 0.243886 -0.484919 2.450915 0.547803 -0.193625 -0.000000 -0.000000 -0.000001 -0.369187 2.365327 0.500573 -0.252668 3.093106 5.116317 -4.051961 2.624728 1.590191 -0.000002 -0.000002 -0.000001 0.396350 -1.049039 -3.193188 -0.989903 -2.376498 -7.446406 -0.715479 -3.109038 0.836581 -0.000000 0.000001 0.000002 2.885248 0.494373 -2.588413 0.888431 -0.224847 0.322405 3.780889 -0.320306 -1.244997 -0.000001 -0.000001 -0.000002 0.117729 0.495648 3.679794 1.199765 -0.177899 -2.868972 0.842252 -4.313799 -6.726768 -0.000003 -0.000001 -0.000001 
37.958092 100.923256 -1.337948 -0.256787 4.792874 1.601383 -4.236984 -1.271904 -0.748517 1.753072 -0.052040 1.191666 0.575405 0.083643 -0.454538 2.359723 0.544444 -0.313787 -0.000000 -0.000000 -0.000001 -0.873113 2.557555 0.617050 0.009245 2.663985 4.774843 -4.094446 2.565739 1.610604 -0.000000 -0.000001 -0.000001 0.267231 -1.045062 -3.453486 -1.578547 -2.495456 -7.272100 0.020422 -2.929346 0.728614 -0.000002 0.000001 0.000002 2.760463 0.510893 -2.588090 1.197026 -0.008995 0.419710 3.574247 0.078859 -0.844267 0.000000 0.000000 0.000001 -0.095236 0.457312 3.921212 1.502156 -0.225288 -3.343150 0.730950 -3.947413 -6.179667 -0.000003 -0.000002 0.000001 
37.936127 100.850403 -1.351046 -0.949145 4.799979 1.733908 -3.813728 -1.108142 -0.846317 1.703431 -0.051973 1.135078 0.549191 0.183444 -0.382789 2.599466 0.338697 -0.316450 0.000001 -0.000000 0.000001 -0.613591 2.177054 0.483845 -0.511305 2.745467 4.847679 -3.405298 2.513573 1.469535 0.000002 -0.000001 -0.000002 0.380420 -0.760040 -3.380878 -1.503732 -2.286687 -6.963505 0.134148 -2.784377 0.419886 -0.000001 0.000001 0.000000 3.287271 0.643261 -2.624747 1.528118 -0.057532 0.501607 3.040253 -0.411493 -1.020677 -0.000001 -0.000001 -0.000000 0.719505 0.511068 3.893941 1.229416 -0.006686 -3.603542 1.279037 -3.779089 -5.865440 0.000000 -0.000001 0.000002 
37.907902 100.778839 -1.360670 -0.904269 4.717341 1.852892 -3.165702 -0.907013 -0.837216 1.190930 -0.134623 1.067581 0.748693 0.455377 -0.288117 2.649759 0.187441 -0.288658 -0.000001 -0.000001 -0.000000 -0.503049 2.231289 0.423426 -0.461343 2.909293 4.880922 -4.062821 2.720164 1.745450 -0.000000 -0.000002 -0.000000 0.228097 -1.251118 -3.415887 -1.284476 -2.509592 -7.074200 -0.606275 -3.354937 0.311399 -0.000001 -0.000001 0.000001 2.962279 0.653954 -2.696694 2.089256 -0.204155 0.428360 2.784101 0.222414 -0.450745 0.000001 0.000000 -0.000002 0.488924 0.470081 3.729015 1.335848 -0.031407 -3.779630 1.447943 -3.251587 -5.420832 0.000001 -0.000003 -0.000000 
37.884769 100.712700 -1.373130 -1.207579 5.064962 2.039880 -2.395827 -0.690602 -0.770564 0.573749 -0.289494 1.156917 1.146754 0.270645 -0.532153 2.193183 0.128057 -0.305582 0.000000 0.000000 -0.000000 -0.566394 2.153619 0.268336 -0.438358 2.940942 5.258712 -3.854821 2.706801 1.630927 -0.000000 -0.000001 0.000000 0.381171 -0.952730 -3.382627 -1.610890 -2.948300 -7.033757 -0.352910 -3.197848 0.219123 -0.000001 0.000001 0.000001 3.400905 0.632923 -2.681536 2.159229 -0.071621 0.489818 2.757109 0.258807 -0.280018 -0.000000 -0.000003 -0.000001 0.880967 0.528608 3.584365 1.763527 -0.428628 -3.573824 1.098188 -3.313105 -5.715819 -0.000006 0.000000 -0.000000 
37.869835 100.646065 -1.391354 -0.988174 5.120857 2.048257 -2.575757 -0.727675 -0.827444 -0.225811 -0.459675 1.142937 1.807112 0.659552 -0.499440 2.444783 -0.124588 -0.122417 0.000001 0.000000 -0.000000 -0.580409 1.970008 0.327317 -0.619465 2.899951 5.250503 -3.004484 2.357672 1.670600 0.000002 -0.000003 0.000000 0.357047 -0.843190 -3.131750 -1.484759 -2.713946 -6.930582 -0.141413 -2.735486 0.057258 -0.000001 0.000003 0.000001 3.418212 0.492401 -2.549969 2.150239 0.020547 0.328334 3.212483 0.138545 -0.497445 0.000002 -0.000000 -0.000001 0.824989 0.601445 3.693712 2.126174 -0.625201 -3.375650 0.798527 -3.591982 -6.062619 -0.000006 -0.000003 -0.000000 
37.856815 100.585579 -1.405623 -0.569348 5.059178 2.041348 -3.324027 -0.901837 -0.895129 1.284445 -0.267413 1.422254 0.783638 0.427140 -0.727530 2.308366 -0.078612 -0.245354 -0.000001 0.000000 -0.000001 -0.739496 1.412775 0.221414 -0.844200 2.529636 5.402806 -2.506710 2.059951 1.369226 0.000000 -0.000003 -0.000002 0.142947 -0.643183 -2.725400 -1.874298 -2.127473 -6.953829 0.201658 -2.126190 -0.205869 -0.000002 0.000003 0.000001 2.825207 0.305746 -2.573170 2.448633 0.277366 0.286575 1.916035 -0.169087 -0.206052 -0.000003 0.000002 -0.000000 0.341940 0.603820 3.822563 2.207839 -0.586757 -3.655216 0.862794 -3.526858 -5.533135 -0.000005 0.000002 -0.000000 
37.847431 100.528282 -1.423968 -0.251803 5.377223 2.147251 -4.236304 -1.131444 -1.011675 1.587028 -0.167016 1.403060 0.681224 0.379978 -0.701987 3.000910 -0.195972 -0.042985 -0.000001 0.000000 -0.000000 -0.327928 1.309316 0.424926 -0.801528 2.659662 5.358334 -2.698978 2.380637 1.367835 0.000000 -0.000001 -0.000000 0.284433 -0.774378 -2.861459 -1.553554 -2.049488 -6.895028 0.246080 -2.720073 0.174957 -0.000000 0.000003 0.000000 2.585132 0.368656 -2.678062 2.740698 0.363509 0.472574 2.445327 -0.507358 -0.630088 -0.000000 -0.000003 -0.000001 0.111089 0.496766 3.642382 2.472826 -0.825909 -3.330986 0.475871 -3.590126 -5.640687 -0.000005 -0.000001 0.000001 
37.836086 100.477432 -1.439608 -0.412690 5.072795 2.142561 -3.829218 -1.038983 -0.958706 1.740781 -0.124337 1.448275 0.387709 0.458768 -0.742104 2.405536 -0.029466 -0.193367 -0.000000 0.000000 -0.000001 -0.573401 1.473576 0.396164 -0.803014 2.689536 5.378791 -2.389506 2.242209 1.519981 0.000002 -0.000002 0.000001 0.340813 -0.750576 -2.863325 -1.698394 -2.254691 -6.932593 0.223224 -2.594228 0.141479 -0.000000 0.000005 0.000000 2.596156 0.327654 -2.707949 2.633981 0.473961 0.254921 1.929721 -0.024777 -0.029773 -0.000001 -0.000003 -0.000003 0.126794 0.532194 3.723071 2.359567 -0.696362 -3.667132 0.676889 -3.196843 -5.042895 -0.000001 -0.000000 -0.000001 
